<?xml version="1.0" encoding="utf-8"?>
<!-- Generator: Adobe Illustrator 26.4.0, SVG Export Plug-In . SVG Version: 6.00 Build 0)  -->
<svg version="1.1" id="Layer_1" xmlns="http://www.w3.org/2000/svg" xmlns:xlink="http://www.w3.org/1999/xlink" x="0px" y="0px"
	 viewBox="0 0 32 32" style="enable-background:new 0 0 32 32;" xml:space="preserve">
<style type="text/css">
	.st0{fill-rule:evenodd;clip-rule:evenodd;fill:#004B88;}
</style>
<path class="st0" d="M16,0.7c8.4,0,15.3,6.9,15.3,15.3S24.4,31.3,16,31.3S0.7,24.4,0.7,16S7.6,0.7,16,0.7L16,0.7z M13.9,29.2
	l6.5-11.3H16l2.2-3.8h10.4l-2.2,3.8l-3.7,0L16,29.4c7.4,0,13.4-6,13.4-13.4S23.4,2.6,16,2.6c-0.5,0-1.1,0-1.6,0.1L7.8,14.1H16
	l-2.2,3.8H3.4l8.4-14.6C6.5,5,2.6,10.1,2.6,16C2.6,22.6,7.5,28.2,13.9,29.2C13.9,29.2,13.9,29.2,13.9,29.2z"/>
<g>
</g>
<g>
</g>
<g>
</g>
<g>
</g>
<g>
</g>
<g>
</g>
<g>
</g>
<g>
</g>
<g>
</g>
<g>
</g>
<g>
</g>
<g>
</g>
<g>
</g>
<g>
</g>
<g>
</g>
</svg>
